PathFileType	4	(X/Y/Z)	c:/Users/goper/Files/vsCode/490R/osim_files/A01/A01_Fast_03.trc
DataRate	CameraRate	NumFrames	NumMarkers	Units                	OrigDataRate	OrigDataStartFrame	OrigNumFrames
120.00	120.00	9	36	mm	120.0	866	1154
                Frame#	Time	Mobility_markerset:LPSIS			Mobility_markerset:LASIS			Mobility_markerset:LTH1			Mobility_markerset:LTH2			Mobility_markerset:LTH3			Mobility_markerset:LTH4			Mobility_markerset:LLFE			Mobility_markerset:LMFE			Mobility_markerset:LSH1			Mobility_markerset:LSH2			Mobility_markerset:LSH3			Mobility_markerset:LSH4			Mobility_markerset:LLMAL			Mobility_markerset:LMMAL			Mobility_markerset:LCAL			Mobility_markerset:LMTP5			Mobility_markerset:LTOE			Mobility_markerset:LMTP1			Mobility_markerset:RPSIS			Mobility_markerset:RASIS			Mobility_markerset:RTH1			Mobility_markerset:RTH2			Mobility_markerset:RTH3			Mobility_markerset:RTH4			Mobility_markerset:RLFE			Mobility_markerset:RMFE			Mobility_markerset:RSH1			Mobility_markerset:RSH2			Mobility_markerset:RSH3			Mobility_markerset:RSH4			Mobility_markerset:RLMAL			Mobility_markerset:RMMAL			Mobility_markerset:RCAL			Mobility_markerset:RMTP1			Mobility_markerset:RTOE			Mobility_markerset:RMTP5		
		X1	Y1	Z1	X2	Y2	Z2	X3	Y3	Z3	X4	Y4	Z4	X5	Y5	Z5	X6	Y6	Z6	X7	Y7	Z7	X8	Y8	Z8	X9	Y9	Z9	X10	Y10	Z10	X11	Y11	Z11	X12	Y12	Z12	X13	Y13	Z13	X14	Y14	Z14	X15	Y15	Z15	X16	Y16	Z16	X17	Y17	Z17	X18	Y18	Z18	X19	Y19	Z19	X20	Y20	Z20	X21	Y21	Z21	X22	Y22	Z22	X23	Y23	Z23	X24	Y24	Z24	X25	Y25	Z25	X26	Y26	Z26	X27	Y27	Z27	X28	Y28	Z28	X29	Y29	Z29	X30	Y30	Z30	X31	Y31	Z31	X32	Y32	Z32	X33	Y33	Z33	X34	Y34	Z34	X35	Y35	Z35	X36	Y36	Z36

866	7.20833	0.00000	0.00000	0.00000	0.00000	0.00000	0.00000	-4279.82031	1056.77747	725.26007	0.00000	0.00000	0.00000	0.00000	0.00000	0.00000	0.00000	0.00000	0.00000	0.00000	0.00000	0.00000	-1277.54236	1326.98401	3128.19116	-4084.25732	654.29340	814.87885	0.00000	0.00000	0.00000	0.00000	0.00000	0.00000	0.00000	0.00000	0.00000	-4232.66797	103.06011	630.93945	0.00000	0.00000	0.00000	-4238.28076	89.75887	539.33380	-4279.49658	42.36658	757.00714	-4352.26123	61.24426	751.18970	0.00000	0.00000	0.00000	-4380.74365	1049.82983	739.66650	0.00000	0.00000	0.00000	-4515.41162	696.84302	992.92096	-4515.28223	655.77844	1004.24255	-4525.22217	674.39813	935.76672	-4522.10107	635.78827	956.51892	-4475.46729	519.91528	1048.61169	0.00000	0.00000	0.00000	-4513.32812	309.98056	1029.46594	-4515.81885	268.84113	1048.01135	-4506.99805	329.38055	1087.00574	-4510.33057	285.48849	1098.57837	-4494.40918	102.93018	1137.01758	0.00000	0.00000	0.00000	-4459.00244	55.15186	1090.38892	0.00000	0.00000	0.00000	-4403.95215	148.89262	1302.33740	-4473.42969	89.87184	1290.34619
867	7.21667	0.00000	0.00000	0.00000	0.00000	0.00000	0.00000	-4282.88135	1056.22620	731.81976	0.00000	0.00000	0.00000	0.00000	0.00000	0.00000	0.00000	0.00000	0.00000	0.00000	0.00000	0.00000	-1277.16870	1327.01013	3128.39185	0.00000	0.00000	0.00000	0.00000	0.00000	0.00000	-4338.96582	539.06207	794.62793	0.00000	0.00000	0.00000	-4233.13916	103.75418	631.37842	0.00000	0.00000	0.00000	-4238.89990	91.05593	539.66205	-4279.48242	42.34813	757.00079	-4352.34766	61.13391	751.40302	0.00000	0.00000	0.00000	-4383.72314	1049.29529	746.93311	0.00000	0.00000	0.00000	-4516.24170	696.00287	1000.69342	-4515.51660	655.05573	1012.33826	-4525.12158	672.92438	943.64020	-4521.50000	634.59064	964.71918	-4473.37549	517.92719	1055.23792	0.00000	0.00000	0.00000	-4511.63281	307.60995	1034.04541	-4513.74951	266.25812	1052.13660	-4504.31348	326.31757	1091.71814	-4507.37646	282.46616	1102.85291	-4491.19092	101.23317	1139.39319	0.00000	0.00000	0.00000	-4458.12988	54.59446	1091.22900	0.00000	0.00000	0.00000	-4394.61768	143.91750	1301.84521	-4465.69043	85.61339	1291.81995
868	7.22500	0.00000	0.00000	0.00000	0.00000	0.00000	0.00000	-4285.84326	1055.65503	738.49664	0.00000	0.00000	0.00000	0.00000	0.00000	0.00000	0.00000	0.00000	0.00000	0.00000	0.00000	0.00000	-1276.74939	1327.10767	3128.61743	-4087.02979	653.52380	822.24603	0.00000	0.00000	0.00000	0.00000	0.00000	0.00000	0.00000	0.00000	0.00000	-4233.61328	104.36722	631.81830	0.00000	0.00000	0.00000	-4239.58203	92.47923	540.05078	-4279.49805	42.35536	757.01831	-4352.45459	61.00285	751.64917	0.00000	0.00000	0.00000	-4386.55859	1048.73621	754.41089	0.00000	0.00000	0.00000	-4516.80273	694.70227	1008.43121	-4515.39893	653.90582	1020.34564	-4524.83154	671.15424	951.46741	-4520.69336	633.04108	972.83112	-4471.36572	515.61316	1061.30591	0.00000	0.00000	0.00000	-4510.05469	305.04126	1038.20081	-4511.61377	263.56647	1056.00623	-4501.84180	323.17917	1095.91711	-4504.77246	279.25690	1106.66650	-4488.45410	98.30211	1141.52771	0.00000	0.00000	0.00000	-4457.45947	53.70884	1092.22253	0.00000	0.00000	0.00000	-4385.76758	137.36923	1302.02295	-4457.85156	80.86501	1292.95410
869	7.23333	0.00000	0.00000	0.00000	0.00000	0.00000	0.00000	-4288.91455	1055.20459	745.22565	0.00000	0.00000	0.00000	0.00000	0.00000	0.00000	0.00000	0.00000	0.00000	0.00000	0.00000	0.00000	-1276.41760	1327.10291	3128.72363	-4087.91235	653.35809	825.99274	0.00000	0.00000	0.00000	0.00000	0.00000	0.00000	0.00000	0.00000	0.00000	-4234.09033	105.09605	632.33124	0.00000	0.00000	0.00000	-4240.39600	94.08530	540.50427	-4279.49072	42.30010	756.99939	-4352.55518	60.81148	751.92029	0.00000	0.00000	0.00000	-4389.31787	1048.16858	762.04596	0.00000	0.00000	0.00000	-4517.11084	693.01648	1015.99768	-4515.02197	652.26184	1028.08423	-4524.41455	669.07178	959.09784	-4519.65332	631.13202	980.63910	-4469.66797	513.00458	1066.77856	0.00000	0.00000	0.00000	-4508.79932	302.65353	1042.30029	-4510.18115	261.03070	1059.77112	-4499.64258	320.27411	1100.01819	-4502.49805	276.28815	1110.46277	-4486.25391	95.13122	1144.65601	0.00000	0.00000	0.00000	-4457.31787	53.09950	1093.86609	0.00000	0.00000	0.00000	0.00000	0.00000	0.00000	-4450.50830	75.38947	1294.44153
870	7.24167	0.00000	0.00000	0.00000	0.00000	0.00000	0.00000	-4291.85547	1054.78235	752.08691	0.00000	0.00000	0.00000	0.00000	0.00000	0.00000	0.00000	0.00000	0.00000	0.00000	0.00000	0.00000	-1276.04419	1327.18176	3128.89111	0.00000	0.00000	0.00000	0.00000	0.00000	0.00000	-4342.21875	536.65106	808.19403	0.00000	0.00000	0.00000	-4234.78369	106.03416	633.04889	0.00000	0.00000	0.00000	-4241.26318	95.91662	541.05560	-4279.51758	42.27810	757.00977	-4352.66797	60.66499	752.24829	0.00000	0.00000	0.00000	-4392.13428	1047.73938	769.78802	0.00000	0.00000	0.00000	-4517.18359	690.96204	1023.25879	-4514.39941	650.21680	1035.32214	-4524.04736	666.83954	966.31403	-4518.64453	628.95288	987.87939	-4468.54248	510.38254	1071.83716	0.00000	0.00000	0.00000	-4507.83691	300.50708	1046.89551	-4509.14062	258.85992	1064.24719	-4497.86768	318.01990	1104.53564	-4500.14258	273.74207	1115.15198	-4484.45117	93.15105	1148.55664	0.00000	0.00000	0.00000	-4456.80029	53.29843	1095.96155	0.00000	0.00000	0.00000	0.00000	0.00000	0.00000	-4444.85400	71.09098	1296.09070
871	7.25000	0.00000	0.00000	0.00000	0.00000	0.00000	0.00000	-4294.73633	1054.52295	758.96075	0.00000	0.00000	0.00000	0.00000	0.00000	0.00000	0.00000	0.00000	0.00000	0.00000	0.00000	0.00000	-1275.70227	1327.27490	3129.07568	0.00000	0.00000	0.00000	0.00000	0.00000	0.00000	-4343.29395	535.98730	813.23871	0.00000	0.00000	0.00000	-4235.23730	107.14960	633.67603	0.00000	0.00000	0.00000	-4242.20117	98.02569	541.65857	-4279.50049	42.17696	756.98492	-4352.80566	60.48317	752.69183	0.00000	0.00000	0.00000	-4394.90479	1047.35120	777.54553	0.00000	0.00000	0.00000	-4517.05615	688.44641	1029.98218	-4513.68555	647.72925	1041.84631	-4523.85156	664.52533	972.94434	-4517.88770	626.61548	994.34113	-4468.27783	507.79337	1076.75012	0.00000	0.00000	0.00000	-4507.50439	298.79788	1052.25684	-4508.69531	257.18097	1069.66614	-4496.48047	316.30066	1109.69421	-4498.74316	272.07101	1120.35864	-4483.27197	91.46098	1152.49634	0.00000	0.00000	0.00000	-4456.23779	53.85765	1098.18689	0.00000	0.00000	0.00000	0.00000	0.00000	0.00000	-4441.92334	67.26325	1298.20227
872	7.25833	0.00000	0.00000	0.00000	0.00000	0.00000	0.00000	-4297.62793	1054.38086	765.83801	0.00000	0.00000	0.00000	0.00000	0.00000	0.00000	0.00000	0.00000	0.00000	0.00000	0.00000	0.00000	-1275.24487	1327.40271	3129.27637	0.00000	0.00000	0.00000	0.00000	0.00000	0.00000	-4344.28271	535.38922	818.49866	0.00000	0.00000	0.00000	-4236.05029	108.48004	634.64264	0.00000	0.00000	0.00000	-4243.20361	100.33112	542.41357	-4279.57031	42.10244	757.02460	-4352.53516	60.00718	752.74139	0.00000	0.00000	0.00000	-4397.82031	1047.07031	785.23218	0.00000	0.00000	0.00000	-4516.94922	685.86987	1036.29163	-4512.89062	644.97156	1047.51917	-4524.11035	662.42523	978.96149	-4517.43457	624.37628	999.81635	-4469.27100	505.72424	1081.57935	0.00000	0.00000	0.00000	-4507.89941	297.80460	1058.03833	-4508.98242	256.18826	1075.39209	-4495.83691	315.21445	1115.27234	-4498.10986	270.97180	1125.98962	-4483.21338	90.25249	1155.82800	0.00000	0.00000	0.00000	-4456.12354	54.66789	1100.24646	0.00000	0.00000	0.00000	-4365.61377	113.53564	1309.99158	-4441.76123	61.17807	1300.90283
873	7.26667	0.00000	0.00000	0.00000	0.00000	0.00000	0.00000	-4300.42725	1054.26196	772.69318	0.00000	0.00000	0.00000	0.00000	0.00000	0.00000	0.00000	0.00000	0.00000	0.00000	0.00000	0.00000	-1274.79675	1327.42932	3129.45142	0.00000	0.00000	0.00000	0.00000	0.00000	0.00000	-4345.20898	534.87341	824.04376	0.00000	0.00000	0.00000	-4236.71533	109.80939	635.55945	0.00000	0.00000	0.00000	-4244.25879	102.91993	543.35052	-4279.61719	41.98995	757.01520	-4353.08154	59.99712	753.76587	0.00000	0.00000	0.00000	-4400.85254	1046.93567	792.83978	0.00000	0.00000	0.00000	-4517.03760	683.53204	1042.06604	-4512.43213	642.44336	1052.43335	-4524.76855	661.17938	984.33490	-4517.45264	622.73340	1004.36816	-4471.24561	504.68411	1086.84363	0.00000	0.00000	0.00000	-4508.93213	297.61044	1063.56323	-4510.00781	255.96414	1080.72534	-4496.48682	314.77737	1120.81702	-4498.69727	270.38132	1131.31726	-4484.06982	89.11493	1158.48474	0.00000	0.00000	0.00000	-4456.19092	55.55479	1102.05322	0.00000	0.00000	0.00000	-4369.19678	108.01029	1316.04932	-4443.56152	54.81316	1303.33813
874	7.27500	0.00000	0.00000	0.00000	-4167.67822	987.37701	989.81158	-4303.22070	1054.24231	779.45117	0.00000	0.00000	0.00000	0.00000	0.00000	0.00000	0.00000	0.00000	0.00000	0.00000	0.00000	0.00000	0.00000	0.00000	0.00000	0.00000	0.00000	0.00000	0.00000	0.00000	0.00000	-4346.08105	534.48071	829.82117	0.00000	0.00000	0.00000	-4237.70166	111.40455	636.70734	-4314.98438	121.32824	593.98041	-4245.50977	105.75796	544.35815	-4279.61377	41.85175	756.92352	-4353.25928	59.81417	754.38141	0.00000	0.00000	0.00000	-4403.83252	1046.72278	800.30463	0.00000	0.00000	0.00000	-4517.37012	682.29871	1047.55933	-4513.14795	640.76184	1056.66418	-4525.61475	661.19745	989.13672	-4518.63672	622.24115	1008.18829	-4473.30811	505.06546	1093.20105	0.00000	0.00000	0.00000	-4510.51709	298.06879	1068.43030	-4511.63037	256.23166	1085.18384	-4498.42139	314.68353	1125.92688	-4500.66846	270.18127	1135.98267	-4485.48242	88.04107	1160.77979	0.00000	0.00000	0.00000	-4456.54053	56.43389	1103.68958	0.00000	0.00000	0.00000	-4372.21826	103.75859	1319.86340	-4445.37598	49.55426	1305.41003
